<?xml version="1.0" standalone="no"?>
<!DOCTYPE svg PUBLIC "-//W3C//DTD SVG 20010904//EN"
 "http://www.w3.org/TR/2001/REC-SVG-20010904/DTD/svg10.dtd">
<svg version="1.0" xmlns="http://www.w3.org/2000/svg"
 width="1672.000000pt" height="827.000000pt" viewBox="0 0 1672.000000 827.000000"
 preserveAspectRatio="xMidYMid meet">

<g transform="translate(0.000000,827.000000) scale(0.100000,-0.100000)"
fill="#000000" stroke="none">
<path d="M2150 8260 c-1117 -6 -1126 -6 -1223 -28 -143 -33 -242 -66 -331
-112 -311 -159 -488 -427 -563 -850 -15 -87 -17 -311 -20 -2640 l-3 -2545 435
435 435 435 0 -685 c0 -645 2 -687 19 -726 13 -28 30 -46 57 -59 42 -20 116
-18 339 9 545 66 1109 67 1615 1 19 -2 55 -7 80 -10 38 -4 94 -14 249 -40 14
-2 47 -9 75 -15 28 -6 61 -12 74 -15 13 -2 31 -6 40 -9 9 -3 28 -7 42 -10 35
-6 174 -41 245 -61 180 -51 243 -65 333 -74 142 -15 246 -4 407 44 553 164
1087 238 1715 239 363 0 518 -9 870 -50 216 -26 266 -25 308 3 57 36 53 -106
53 2306 -1 2007 -2 2222 -16 2238 -33 35 -147 46 -182 17 -8 -7 -19 -24 -25
-38 -6 -16 -9 -738 -8 -2002 1 -2189 6 -2016 -63 -2058 -29 -18 -51 -20 -232
-20 -866 0 -1645 -145 -2357 -436 -90 -37 -185 -76 -213 -87 -35 -14 -78 -21
-145 -23 -106 -3 -147 8 -365 101 -269 114 -728 258 -955 299 -14 2 -54 11
-90 19 -36 9 -81 18 -100 20 -19 3 -60 10 -90 16 -30 6 -75 13 -100 16 -25 3
-52 7 -60 10 -8 2 -42 7 -75 11 -33 3 -71 8 -85 9 -245 31 -403 42 -731 54
-297 11 -325 19 -362 98 -22 47 -22 55 -25 597 l-3 549 103 104 103 103 -4
1518 c-4 1691 -8 1577 63 1607 65 28 166 13 187 -26 7 -13 10 -479 9 -1432 l0
-1412 110 110 110 110 0 1523 c0 1633 -2 1574 48 1601 33 18 135 13 306 -14
414 -65 825 -183 1251 -360 191 -79 555 -255 602 -291 41 -31 65 -76 72 -132
l6 -42 1048 1048 1049 1049 -999 6 c-549 4 -1203 6 -1453 5 -250 -2 -961 -5
-1580 -8z"/>
<path d="M9163 7420 l-103 -49 0 -1441 0 -1441 708 4 c691 3 709 4 791 25 220
58 359 195 418 412 16 57 18 114 18 475 l0 410 -28 80 c-46 128 -141 251 -236
304 -11 7 -7 20 22 67 67 110 72 144 72 464 0 240 -3 295 -18 350 -41 154
-122 262 -239 319 -134 65 -127 65 -743 68 l-560 2 -102 -49z m1178 -333 c32
-17 50 -37 69 -72 25 -49 25 -52 25 -300 0 -248 0 -251 -25 -300 -19 -35 -37
-55 -69 -72 l-44 -23 -424 0 -423 0 0 395 0 395 423 0 424 0 44 -23z m125
-1154 c60 -32 111 -93 131 -160 16 -50 18 -98 18 -368 0 -270 -2 -318 -18
-368 -20 -67 -71 -128 -131 -160 -40 -22 -50 -22 -528 -25 l-488 -3 0 556 0
556 488 -3 c478 -3 488 -3 528 -25z"/>
<path d="M11760 6653 c-206 -26 -348 -116 -419 -267 -59 -122 -61 -156 -61
-811 0 -504 2 -608 16 -673 32 -158 111 -272 232 -335 128 -68 162 -72 567
-72 309 0 370 2 428 17 195 51 311 165 364 358 16 59 18 123 18 705 0 582 -2
646 -18 705 -40 147 -118 250 -235 309 -117 59 -153 64 -522 66 -184 2 -351 1
-370 -2z m660 -373 c45 -23 73 -60 89 -115 15 -56 15 -1124 0 -1180 -16 -56
-44 -92 -90 -116 -38 -19 -55 -20 -338 -17 l-298 3 -35 27 c-75 57 -73 35 -76
673 -3 603 -2 621 43 681 47 61 60 64 378 64 267 0 291 -1 327 -20z"/>
<path d="M13610 6653 c-206 -26 -348 -116 -419 -267 -59 -122 -61 -156 -61
-811 0 -504 2 -608 16 -673 32 -158 111 -272 232 -335 128 -68 162 -72 567
-72 309 0 370 2 428 17 195 51 311 165 364 358 16 59 18 123 18 705 0 582 -2
646 -18 705 -40 147 -118 250 -235 309 -117 59 -153 64 -522 66 -184 2 -351 1
-370 -2z m660 -373 c45 -23 73 -60 89 -115 15 -56 15 -1124 0 -1180 -16 -56
-44 -92 -90 -116 -38 -19 -55 -20 -338 -17 l-298 3 -35 27 c-75 57 -73 35 -76
673 -3 603 -2 621 43 681 47 61 60 64 378 64 267 0 291 -1 327 -20z"/>
<path d="M15460 6653 c-201 -23 -348 -116 -419 -267 -61 -128 -61 -128 -61
-1096 0 -484 3 -880 8 -879 4 0 90 40 192 88 l185 88 5 789 c5 748 6 791 24
827 10 21 35 50 54 65 35 27 36 27 245 32 l210 5 78 169 c44 93 79 172 79 177
0 9 -528 10 -600 2z"/>
<path d="M3080 5770 l0 -120 43 0 c37 0 132 -18 195 -36 22 -6 22 -6 22 120 0
122 -1 126 -22 131 -92 20 -120 25 -175 25 l-63 0 0 -120z"/>
<path d="M3080 5364 l0 -119 63 -16 c34 -9 70 -19 80 -23 16 -8 17 2 17 122 0
148 6 139 -97 149 l-63 6 0 -119z"/>
<path d="M2656 4398 c-3 -13 -6 -33 -6 -45 0 -27 -12 -29 -31 -7 -61 74 -206
47 -243 -46 -9 -22 -16 -57 -16 -76 l0 -36 -35 30 c-59 53 -137 54 -197 4 -57
-48 -58 -54 -58 -485 0 -225 4 -417 10 -448 16 -82 57 -154 126 -219 91 -85
143 -102 322 -108 l142 -4 0 731 c0 402 -2 731 -4 731 -2 0 -6 -10 -10 -22z"/>
<path d="M15263 3920 l-183 -89 0 -1480 c0 -815 2 -1481 4 -1481 3 0 89 40
193 89 l188 88 5 449 c5 486 4 478 62 531 43 40 69 43 362 43 272 0 283 -1
326 -22 32 -16 52 -36 70 -68 l25 -45 3 -532 c2 -293 6 -533 10 -533 4 1 90
40 192 88 l185 88 0 470 c0 422 -2 475 -18 533 -56 196 -168 306 -364 356 -34
9 -120 19 -190 23 l-128 7 322 295 c177 162 320 299 319 303 -1 5 -79 45 -174
90 l-173 81 -392 -398 c-290 -294 -398 -397 -414 -396 l-23 0 0 800 c0 634 -3
800 -12 799 -7 0 -95 -40 -195 -89z"/>
<path d="M9163 3880 l-103 -49 0 -1441 0 -1441 708 4 c691 3 709 4 791 25 220
58 359 195 418 412 16 57 18 114 18 475 l0 410 -28 80 c-46 128 -141 251 -236
304 -11 7 -7 20 22 67 67 110 72 144 72 464 0 240 -3 295 -18 350 -41 154
-122 262 -239 319 -134 65 -127 65 -743 68 l-560 2 -102 -49z m1178 -333 c32
-17 50 -37 69 -72 25 -49 25 -52 25 -300 0 -248 0 -251 -25 -300 -19 -35 -37
-55 -69 -72 l-44 -23 -424 0 -423 0 0 395 0 395 423 0 424 0 44 -23z m125
-1154 c60 -32 111 -93 131 -160 16 -50 18 -98 18 -368 0 -270 -2 -318 -18
-368 -20 -67 -71 -128 -131 -160 -40 -22 -50 -22 -528 -25 l-488 -3 0 556 0
556 488 -3 c478 -3 488 -3 528 -25z"/>
<path d="M11760 3113 c-206 -26 -348 -116 -419 -267 -59 -122 -61 -156 -61
-811 0 -504 2 -608 16 -673 32 -158 111 -272 232 -335 128 -68 162 -72 567
-72 309 0 370 2 428 17 195 51 311 165 364 358 16 59 18 123 18 705 0 582 -2
646 -18 705 -40 147 -118 250 -235 309 -117 59 -153 64 -522 66 -184 2 -351 1
-370 -2z m660 -373 c45 -23 73 -60 89 -115 15 -56 15 -1124 0 -1180 -16 -56
-44 -92 -90 -116 -38 -19 -55 -20 -338 -17 l-298 3 -35 27 c-75 57 -73 35 -76
673 -3 603 -2 621 43 681 47 61 60 64 378 64 267 0 291 -1 327 -20z"/>
<path d="M13610 3113 c-206 -26 -348 -116 -419 -267 -59 -122 -61 -156 -61
-811 0 -504 2 -608 16 -673 32 -158 111 -272 232 -335 128 -68 162 -72 567
-72 309 0 370 2 428 17 195 51 311 165 364 358 16 59 18 123 18 705 0 582 -2
646 -18 705 -40 147 -118 250 -235 309 -117 59 -153 64 -522 66 -184 2 -351 1
-370 -2z m660 -373 c45 -23 73 -60 89 -115 15 -56 15 -1124 0 -1180 -16 -56
-44 -92 -90 -116 -38 -19 -55 -20 -338 -17 l-298 3 -35 27 c-75 57 -73 35 -76
673 -3 603 -2 621 43 681 47 61 60 64 378 64 267 0 291 -1 327 -20z"/>
</g>
</svg>
